# xmcd
# Track frame offsets:
# 150
# 19107
# 43330
# 76137
# 97707
# 129155
# 145667
# 165907
#
# Disc length: 2597 seconds
# Revision: 0
# Processed by: cddbd v1.4PL0 Copyright (c) Steve Scherf et al.
# Submitted via: VisiTrax 2.9.5.180 - For more info visit www.synapsa.com
#
DISCID=500a2308
DTITLE=Kenn Lending Blues Band - Blues for the people
DYEAR=1985
DGENRE=
TTITLE0=Ain't but one thing
TTITLE1=Chicken shack
TTITLE2=Past life blues
TTITLE3=Why did you leave me
TTITLE4=Blues for mama
TTITLE5=Crazy for my baby
TTITLE6=Let me down easy
TTITLE7=Sittin' in my dark room
EXTD=
EXTT0=
EXTT1=
EXTT2=
EXTT3=
EXTT4=
EXTT5=
EXTT6=
EXTT7=
PLAYORDER=
